Coordinates
version=1
nRows=33
nColumns=38
inDegrees=no

Units are S.I. units (second, meters, Newtons, ...)
If the header above contains a line with 'inDegrees', this indicates whether rotational values are in degrees (yes) or radians (no).

endheader
time	pelvis_tilt	pelvis_list	pelvis_rotation	pelvis_tx	pelvis_ty	pelvis_tz	hip_flexion_r	hip_adduction_r	hip_rotation_r	knee_angle_r	ankle_angle_r	subtalar_angle_r	mtp_angle_r	hip_flexion_l	hip_adduction_l	hip_rotation_l	knee_angle_l	ankle_angle_l	subtalar_angle_l	mtp_angle_l	lumbar_extension	lumbar_bending	lumbar_rotation	arm_flex_r	arm_add_r	arm_rot_r	elbow_flex_r	pro_sup_r	wrist_flex_r	wrist_dev_r	arm_flex_l	arm_add_l	arm_rot_l	elbow_flex_l	pro_sup_l	wrist_flex_l	wrist_dev_l
5.365	0.03961	-0.0540151	-3.08166	-0.176018	0.990468	-0.00737152	0.0079086	-0.0799425	-0.376539	0.0812663	0.0789763	0	0	0.03684	0.00848567	0.106483	0.0965422	0.0374098	0	0	-0.128084	-0.100323	0.157152	-1.56762	-0.783813	-1.54621	0.884943	0.707765	0	0	1.51684	-1.39226	0.794408	0.0470912	1.49564	0	0
5.37499	0.0395568	-0.0540812	-3.08172	-0.175996	0.990475	-0.00743891	0.00790102	-0.0799605	-0.376504	0.0812833	0.078957	0	0	0.0368192	0.00849113	0.106408	0.0965818	0.0373587	0	0	-0.128234	-0.100432	0.157408	-1.56763	-0.783692	-1.5459	0.884885	0.707488	0	0	1.51735	-1.3919	0.793214	0.0470602	1.4955	0	0
5.38498	0.0395249	-0.0541493	-3.08177	-0.175973	0.990482	-0.00750364	0.00790744	-0.0799797	-0.376464	0.081281	0.078926	0	0	0.0368055	0.00850177	0.106338	0.0965935	0.0372876	0	0	-0.128375	-0.100527	0.157659	-1.56763	-0.783558	-1.5458	0.884817	0.707342	0	0	1.51785	-1.39158	0.792289	0.0470292	1.49537	0	0
5.39497	0.0395172	-0.0542178	-3.08183	-0.175949	0.990487	-0.0075653	0.00793017	-0.0799986	-0.376422	0.0812596	0.0788838	0	0	0.0368037	0.00851623	0.106276	0.0965795	0.037198	0	0	-0.128504	-0.100608	0.157901	-1.56763	-0.783408	-1.5459	0.884748	0.707338	0	0	1.51835	-1.39128	0.791646	0.0469983	1.49523	0	0
5.40496	0.0395357	-0.0542853	-3.08189	-0.175923	0.990492	-0.00762398	0.00797183	-0.080015	-0.376384	0.0812212	0.0788315	0	0	0.036819	0.00853204	0.106224	0.0965436	0.0370925	0	0	-0.128616	-0.100676	0.158129	-1.56763	-0.783241	-1.54616	0.884685	0.707476	0	0	1.51885	-1.39101	0.791277	0.0469673	1.49509	0	0
5.41495	0.0395828	-0.054351	-3.08193	-0.175897	0.990496	-0.0076791	0.00803451	-0.0800295	-0.376352	0.081166	0.0787704	0	0	0.0368564	0.00854969	0.106185	0.0964894	0.0369727	0	0	-0.12871	-0.100732	0.15834	-1.56763	-0.783051	-1.54657	0.884633	0.707749	0	0	1.51934	-1.39077	0.791196	0.0469363	1.49495	0	0
5.42494	0.0396593	-0.0544141	-3.08197	-0.175869	0.9905	-0.00773062	0.00811979	-0.0800419	-0.376329	0.0810962	0.0787024	0	0	0.0369198	0.0085686	0.106162	0.0964209	0.0368408	0	0	-0.128785	-0.100776	0.15853	-1.56763	-0.782838	-1.54713	0.884596	0.708152	0	0	1.51983	-1.39056	0.791406	0.0469053	1.49482	0	0
5.43493	0.0397634	-0.054473	-3.08198	-0.17584	0.990505	-0.00777912	0.00822786	-0.0800509	-0.376317	0.0810168	0.0786299	0	0	0.0370105	0.00858678	0.106156	0.0963429	0.0367001	0	0	-0.128842	-0.100812	0.158696	-1.56763	-0.782602	-1.54775	0.884582	0.708678	0	0	1.52033	-1.39038	0.791873	0.0468743	1.49468	0	0
5.44493	0.0398926	-0.0545276	-3.08198	-0.17581	0.990509	-0.00782503	0.00835719	-0.0800563	-0.376319	0.0809315	0.0785546	0	0	0.0371281	0.00860349	0.106168	0.096259	0.0365534	0	0	-0.128884	-0.100842	0.158837	-1.56763	-0.782343	-1.54839	0.884591	0.709303	0	0	1.52081	-1.39023	0.792565	0.0468432	1.49454	0	0
5.45492	0.0400456	-0.0545781	-3.08196	-0.175779	0.990515	-0.00786816	0.00850654	-0.0800597	-0.376337	0.0808419	0.0784776	0	0	0.0372722	0.00861988	0.106199	0.0961717	0.0364021	0	0	-0.128913	-0.100867	0.158955	-1.56764	-0.782059	-1.54906	0.884619	0.709999	0	0	1.5213	-1.39009	0.793477	0.046812	1.4944	0	0
5.46491	0.0402213	-0.0546239	-3.08191	-0.175747	0.990521	-0.00790878	0.0086764	-0.0800611	-0.376372	0.0807517	0.0783993	0	0	0.0374438	0.00863538	0.10625	0.0960847	0.0362486	0	0	-0.128931	-0.100887	0.159045	-1.56764	-0.781753	-1.54974	0.884665	0.710749	0	0	1.52178	-1.38999	0.794586	0.0467808	1.49427	0	0
5.4749	0.0404176	-0.0546633	-3.08185	-0.175713	0.990527	-0.00794794	0.00886815	-0.0800583	-0.376425	0.0806672	0.0783205	0	0	0.0376443	0.0086468	0.106319	0.0960037	0.0360963	0	0	-0.12894	-0.100906	0.159106	-1.56764	-0.781432	-1.55033	0.884735	0.711529	0	0	1.52226	-1.38991	0.795828	0.0467495	1.49413	0	0
5.48489	0.040633	-0.0546958	-3.08176	-0.175679	0.990535	-0.00798647	0.00908227	-0.0800502	-0.376493	0.0805928	0.0782434	0	0	0.0378739	0.0086523	0.106403	0.0959331	0.0359486	0	0	-0.128942	-0.100926	0.159139	-1.56764	-0.781099	-1.55079	0.884831	0.712302	0	0	1.52274	-1.38985	0.797132	0.0467182	1.49399	0	0
5.49488	0.0408639	-0.0547209	-3.08166	-0.175644	0.990543	-0.00802585	0.00931833	-0.0800347	-0.376577	0.080535	0.0781706	0	0	0.0381308	0.00864863	0.106498	0.0958768	0.0358094	0	0	-0.128936	-0.100954	0.159146	-1.56764	-0.78076	-1.55101	0.884959	0.713025	0	0	1.52321	-1.3898	0.798396	0.0466867	1.49385	0	0
5.50487	0.041107	-0.0547387	-3.08155	-0.175609	0.990552	-0.00806697	0.00957442	-0.0800111	-0.376671	0.0804968	0.0781048	0	0	0.0384112	0.00863463	0.1066	0.0958366	0.0356816	0	0	-0.128922	-0.100992	0.159135	-1.56764	-0.780419	-1.55092	0.885121	0.713642	0	0	1.52368	-1.38976	0.799518	0.0466552	1.4937	0	0
5.51486	0.0413592	-0.05475	-3.08142	-0.175575	0.990562	-0.00810999	0.00984746	-0.0799808	-0.376775	0.0804783	0.0780472	0	0	0.0387107	0.00861127	0.106705	0.0958119	0.0355661	0	0	-0.128899	-0.101042	0.159114	-1.56764	-0.780078	-1.55049	0.885312	0.714095	0	0	1.52415	-1.3897	0.800435	0.0466238	1.49356	0	0
5.52485	0.0416169	-0.0547565	-3.08129	-0.175541	0.990572	-0.0081545	0.0101324	-0.0799464	-0.376886	0.0804759	0.0779975	0	0	0.0390228	0.00858143	0.106811	0.0957993	0.0354611	0	0	-0.128867	-0.101103	0.159091	-1.56764	-0.779736	-1.54976	0.885522	0.714341	0	0	1.52462	-1.38962	0.801141	0.0465924	1.49342	0	0
5.53484	0.0418747	-0.05476	-3.08115	-0.17551	0.990584	-0.00820018	0.0104224	-0.0799096	-0.377001	0.0804861	0.077954	0	0	0.0393384	0.00854734	0.106915	0.0957934	0.0353635	0	0	-0.128829	-0.101172	0.15907	-1.56765	-0.779398	-1.54877	0.885744	0.714363	0	0	1.52508	-1.38953	0.80165	0.0465611	1.49327	0	0
5.54483	0.0421288	-0.0547629	-3.08101	-0.175481	0.990595	-0.00824586	0.0107092	-0.0798739	-0.377119	0.0805004	0.077914	0	0	0.0396477	0.00851365	0.107018	0.0957856	0.0352681	0	0	-0.128789	-0.101244	0.159056	-1.56765	-0.779064	-1.54763	0.885966	0.714161	0	0	1.52554	-1.38941	0.802037	0.0465302	1.49312	0	0
5.55482	0.0423768	-0.0547677	-3.08088	-0.175454	0.990606	-0.00829007	0.0109864	-0.0798429	-0.377237	0.0805101	0.0778746	0	0	0.0399419	0.00848525	0.107122	0.0957661	0.0351681	0	0	-0.128747	-0.101312	0.159051	-1.56765	-0.778731	-1.54649	0.886177	0.713766	0	0	1.526	-1.38929	0.802414	0.0464997	1.49298	0	0
5.56481	0.0426179	-0.0547756	-3.08076	-0.175431	0.990618	-0.0083322	0.0112505	-0.0798176	-0.377352	0.0805091	0.0778321	0	0	0.0402147	0.00846426	0.107226	0.0957257	0.0350582	0	0	-0.128707	-0.101374	0.159054	-1.56765	-0.778403	-1.54541	0.886378	0.713234	0	0	1.52646	-1.38916	0.802865	0.0464699	1.49283	0	0
5.5748	0.0428542	-0.0547886	-3.08064	-0.175411	0.990629	-0.00837158	0.0114998	-0.0797997	-0.377463	0.0804907	0.0777837	0	0	0.0404626	0.00845345	0.107331	0.0956565	0.0349337	0	0	-0.128666	-0.101424	0.159063	-1.56765	-0.778077	-1.54447	0.886569	0.712621	0	0	1.52691	-1.38905	0.80347	0.046441	1.49268	0	0
5.5848	0.0430882	-0.0548073	-3.08054	-0.175394	0.990639	-0.00840814	0.0117349	-0.0797892	-0.377568	0.0804513	0.0777273	0	0	0.040685	0.00845376	0.107437	0.0955534	0.0347922	0	0	-0.128622	-0.101464	0.159077	-1.56765	-0.777753	-1.54371	0.886754	0.711989	0	0	1.52736	-1.38895	0.804273	0.0464132	1.49253	0	0
5.59479	0.04332	-0.0548313	-3.08045	-0.175381	0.990648	-0.00844245	0.0119558	-0.0797849	-0.377664	0.0803905	0.0776622	0	0	0.0408814	0.00846399	0.107544	0.0954153	0.0346336	0	0	-0.128576	-0.101493	0.159093	-1.56765	-0.777439	-1.54311	0.886938	0.711386	0	0	1.52781	-1.38887	0.805263	0.0463868	1.49238	0	0
5.60478	0.0435478	-0.0548598	-3.08037	-0.175371	0.990656	-0.00847549	0.0121618	-0.0797839	-0.377751	0.0803104	0.0775887	0	0	0.0410515	0.00848138	0.107651	0.0952441	0.0344606	0	0	-0.128528	-0.101518	0.159106	-1.56765	-0.777139	-1.5426	0.887131	0.710842	0	0	1.52825	-1.3888	0.80638	0.046362	1.49222	0	0
5.61477	0.0437694	-0.0548912	-3.0803	-0.175365	0.990664	-0.00850838	0.0123522	-0.0797833	-0.377829	0.0802146	0.0775071	0	0	0.0411954	0.00850246	0.107757	0.0950436	0.0342765	0	0	-0.128478	-0.101543	0.159117	-1.56766	-0.776861	-1.54207	0.887337	0.710358	0	0	1.52869	-1.38875	0.807523	0.0463389	1.49207	0	0
5.62476	0.0439824	-0.0549239	-3.08023	-0.175363	0.990673	-0.00854234	0.0125264	-0.0797794	-0.3779	0.0801081	0.0774184	0	0	0.0413135	0.00852312	0.107863	0.0948189	0.0340854	0	0	-0.128427	-0.101574	0.159125	-1.56766	-0.776611	-1.54142	0.88756	0.709913	0	0	1.52913	-1.38871	0.808565	0.0463177	1.49192	0	0
5.63475	0.0441855	-0.0549572	-3.08017	-0.175365	0.990682	-0.00857769	0.0126846	-0.0797712	-0.377965	0.0799931	0.0773242	0	0	0.0414078	0.00854193	0.107968	0.0945743	0.0338902	0	0	-0.128373	-0.101616	0.159133	-1.56766	-0.776388	-1.54058	0.887795	0.709462	0	0	1.52957	-1.38865	0.809414	0.0462982	1.49177	0	0
5.64474	0.0443784	-0.0549906	-3.08012	-0.175371	0.990691	-0.00861465	0.0128276	-0.0797576	-0.378025	0.079872	0.0772261	0	0	0.0414803	0.0085575	0.108074	0.0943144	0.0336931	0	0	-0.128318	-0.10167	0.159146	-1.56766	-0.776192	-1.53951	0.888036	0.708962	0	0	1.53	-1.38857	0.809999	0.0462801	1.49162	0	0
5.65473	0.0445619	-0.0550239	-3.08007	-0.175381	0.990701	-0.00865341	0.0129576	-0.0797379	-0.378079	0.0797473	0.0771265	0	0	0.0415343	0.00856863	0.108177	0.0940432	0.0334962	0	0	-0.128259	-0.101737	0.159165	-1.56766	-0.77602	-1.53819	0.88828	0.708378	0	0	1.53044	-1.38848	0.810273	0.0462629	1.49148	0	0
5.66472	0.0447399	-0.0550573	-3.08003	-0.175395	0.990712	-0.00869405	0.0130795	-0.0797121	-0.378126	0.0796205	0.0770278	0	0	0.041575	0.00857483	0.108276	0.0937639	0.0333019	0	0	-0.128193	-0.101819	0.159194	-1.56766	-0.775868	-1.53663	0.888524	0.707676	0	0	1.53086	-1.38836	0.810213	0.0462464	1.49134	0	0
5.67471	0.044918	-0.055092	-3.08	-0.175413	0.990723	-0.00873606	0.0131985	-0.0796825	-0.378165	0.0794927	0.076932	0	0	0.0416085	0.00857778	0.108369	0.0934792	0.0331113	0	0	-0.128115	-0.101914	0.159235	-1.56766	-0.775727	-1.53487	0.888764	0.706838	0	0	1.53129	-1.38823	0.809832	0.0462301	1.4912	0	0
5.6847	0.0451023	-0.0551301	-3.07997	-0.175435	0.990733	-0.008778	0.0133192	-0.0796538	-0.378199	0.0793629	0.0768405	0	0	0.0416408	0.00858211	0.108457	0.0931905	0.0329235	0	0	-0.12802	-0.102016	0.159287	-1.56767	-0.775588	-1.53303	0.888992	0.70586	0	0	1.53171	-1.38808	0.809202	0.0462137	1.49107	0	0
